<svg width="10" height="10" viewBox="0 0 10 10" fill="none" xmlns="http://www.w3.org/2000/svg">
<g clip-path="url(#clip0)">
<path d="M9.97393 3.83602C9.90847 3.63353 9.72887 3.48971 9.51639 3.47056L6.63011 3.20848L5.4888 0.537133C5.40465 0.341358 5.21299 0.21463 5.00005 0.21463C4.78711 0.21463 4.59545 0.341358 4.5113 0.537591L3.36999 3.20848L0.483257 3.47056C0.271154 3.49017 0.0920116 3.63353 0.0261682 3.83602C-0.0396751 4.0385 0.0211327 4.2606 0.181583 4.4006L2.36326 6.31395L1.71994 9.14781C1.67286 9.35618 1.75374 9.57156 1.92662 9.69653C2.01955 9.76367 2.12827 9.79785 2.23791 9.79785C2.33244 9.79785 2.42621 9.77237 2.51036 9.72202L5.00005 8.23402L7.48882 9.72202C7.67094 9.83158 7.90052 9.82158 8.07302 9.69653C8.24598 9.57118 8.32678 9.35572 8.27971 9.14781L7.63638 6.31395L9.81806 4.40099C9.97851 4.2606 10.0398 4.03889 9.97393 3.83602Z" fill="#FFC107"/>
</g>
<defs>
<clipPath id="clip0">
<rect width="10" height="10" fill="white"/>
</clipPath>
</defs>
</svg>
